<svg viewBox="0 0 580 500" xmlns="http://www.w3.org/2000/svg" font-family="ui-sans-serif, system-ui, sans-serif" role="img" aria-labelledby="t d">
  <title id="t">ada login — device flow</title>
  <desc id="d">Signing in with GitHub or Google uses the OAuth 2.0 device authorization grant (RFC 8628). The client requests a device code, shows you a user code and a URL, you approve in your browser, and the client polls until it receives an access token, which it stores locally and sends as the bearer for the backend to verify your identity.</desc>

  <defs>
    <marker id="a" markerWidth="9" markerHeight="9" refX="7" refY="4.5" orient="auto"><path d="M0,0 L9,4.5 L0,9 z" fill="#ffaf00"/></marker>
  </defs>

  <rect x="6" y="6" width="568" height="488" rx="16" fill="#0d0f12" stroke="#262b33"/>
  <rect x="30" y="30" width="13" height="13" rx="4" transform="rotate(45 36 36)" fill="#ffaf00"/>
  <text x="54" y="36" fill="#ffaf00" font-size="16" font-weight="700">ada · sign in</text>
  <text x="54" y="55" fill="#9aa3af" font-size="11.5">device flow (RFC 8628) — no password ever touches ada</text>

  <!-- connector spine -->
  <g stroke="#ffaf00" stroke-width="1.6" fill="none">
    <line x1="60" y1="118" x2="60" y2="150" marker-end="url(#a)"/>
    <line x1="60" y1="196" x2="60" y2="228" marker-end="url(#a)"/>
    <line x1="60" y1="288" x2="60" y2="320" marker-end="url(#a)"/>
    <line x1="60" y1="366" x2="60" y2="398" marker-end="url(#a)"/>
  </g>

  <g font-family="ui-monospace, monospace">
    <!-- 1 -->
    <circle cx="60" cy="92" r="13" fill="#14171c" stroke="#ffaf00"/><text x="60" y="96" fill="#ffaf00" font-size="12" font-weight="700" text-anchor="middle">1</text>
    <rect x="92" y="74" width="456" height="38" rx="9" fill="#14171c" stroke="#262b33"/>
    <text x="108" y="91" fill="#e6e9ee" font-size="12">ada · <tspan fill="#ffaf00">/login</tspan> → choose GitHub or Google</text>
    <text x="108" y="105" fill="#9aa3af" font-size="9.5">client POSTs a device-code request</text>

    <!-- 2 -->
    <circle cx="60" cy="172" r="13" fill="#14171c" stroke="#ffaf00"/><text x="60" y="176" fill="#ffaf00" font-size="12" font-weight="700" text-anchor="middle">2</text>
    <rect x="92" y="154" width="456" height="42" rx="9" fill="#14171c" stroke="#262b33"/>
    <text x="108" y="172" fill="#e6e9ee" font-size="12">ada shows a <tspan fill="#ffaf00" font-weight="700">user code</tspan> + a verification URL</text>
    <text x="108" y="188" fill="#9aa3af" font-size="9.5">e.g. 8447-AB0E · https://github.com/login/device</text>

    <!-- 3 (human / browser) -->
    <circle cx="60" cy="258" r="13" fill="#14171c" stroke="#ff7a59"/><text x="60" y="262" fill="#ff7a59" font-size="12" font-weight="700" text-anchor="middle">3</text>
    <rect x="92" y="234" width="456" height="54" rx="9" fill="#14171c" stroke="#ff7a59"/>
    <text x="108" y="254" fill="#ff7a59" font-size="12" font-weight="700">↗ you open the URL in a browser</text>
    <text x="108" y="271" fill="#e6e9ee" font-size="11">enter the code, sign in, approve</text>
    <text x="108" y="284" fill="#9aa3af" font-size="9.5">meanwhile ada polls the token endpoint</text>

    <!-- 4 -->
    <circle cx="60" cy="342" r="13" fill="#14171c" stroke="#ffaf00"/><text x="60" y="346" fill="#ffaf00" font-size="12" font-weight="700" text-anchor="middle">4</text>
    <rect x="92" y="324" width="456" height="42" rx="9" fill="#14171c" stroke="#262b33"/>
    <text x="108" y="342" fill="#e6e9ee" font-size="12">provider returns an <tspan fill="#7ee08a" font-weight="700">access token</tspan></text>
    <text x="108" y="358" fill="#9aa3af" font-size="9.5">stored locally in ~/.ada/credentials.json (file-locked)</text>

    <!-- 5 -->
    <circle cx="60" cy="422" r="13" fill="#14171c" stroke="#3fb950"/><text x="60" y="426" fill="#7ee08a" font-size="12" font-weight="700" text-anchor="middle">5</text>
    <rect x="92" y="404" width="456" height="44" rx="9" fill="#14171c" stroke="#3fb950"/>
    <text x="108" y="423" fill="#e6e9ee" font-size="12">token sent as the <tspan fill="#7ee08a" font-weight="700">bearer</tspan>; backend verifies identity</text>
    <text x="108" y="439" fill="#9aa3af" font-size="9.5">server/identity.ts: GitHub /user · Google userinfo · allowlist</text>
  </g>

  <text x="290" y="476" fill="#6b7480" font-size="10" text-anchor="middle" font-family="ui-monospace, monospace">GitHub client_id is baked in (public, like gh) — zero client config</text>
</svg>
